<?xml version="1.0" encoding="utf-8"?>
<!-- Generator: Adobe Illustrator 20.1.0, SVG Export Plug-In . SVG Version: 6.00 Build 0)  -->
<svg version="1.1" id="icon" xmlns="http://www.w3.org/2000/svg" xmlns:xlink="http://www.w3.org/1999/xlink" x="0px" y="0px"
	 viewBox="0 0 77.4 77" style="enable-background:new 0 0 77.4 77;" xml:space="preserve">
<style type="text/css">
	.st0{fill:#546E7A;}
</style>
<path class="st0" d="M35.8,47.1l13.7-13.7C53,34.7,57.1,33.9,60,31c3-3,3.7-7.6,2-11.2l-6.5,6.5L51,21.8l6.5-6.7
	c-3.7-1.8-8.2-1.1-11.2,2c-2.9,2.9-3.7,6.9-2.3,10.5L30.2,41.3c-0.6,0.6-0.6,1.5,0,2.1l3.5,3.5C34.3,47.7,35.4,47.7,35.8,47.1z"/>
<path class="st0" d="M57.6,57.3h-38v-38h19v-5.4h-19c-3,0-5.4,2.5-5.4,5.4v38c0,3,2.4,5.4,5.4,5.4h38c3,0,5.4-2.5,5.4-5.4v-19h-5.4
	V57.3z"/>
</svg>
