<?xml version="1.0" encoding="utf-8"?>
<!-- Generator: Adobe Illustrator 19.0.0, SVG Export Plug-In . SVG Version: 6.00 Build 0)  -->
<svg version="1.1" id="Layer_1" xmlns="http://www.w3.org/2000/svg" xmlns:xlink="http://www.w3.org/1999/xlink" x="0px" y="0px"
	 viewBox="-144 211.9 51.8 48.1" style="enable-background:new -144 211.9 51.8 48.1;" xml:space="preserve">
<style type="text/css">
	.st0{stroke:#CACCCD;stroke-width:0.1637;stroke-miterlimit:10;}
	.st1{fill:#E1E2E4;}
	.st2{fill:#E8E9EB;}
	.st3{fill:#E63935;}
	.st4{fill:#A8AAA9;}
	.st5{fill:#FFD200;}
	.st6{fill:#4DBB48;}
	.st7{fill:#2B89DE;}
	.st8{fill:#F8F4F5;}
</style>
<path id="XMLID_380_" class="st0" d="M-103.8,260.1"/>
<g id="XMLID_368_">
	<rect id="XMLID_378_" x="-144" y="219.7" class="st1" width="51.8" height="20"/>
	<path id="XMLID_377_" class="st2" d="M-96.3,260H-140c-2.2,0-4-1.8-4-4v-16.3h51.8v16.2C-92.2,258.2-94,260-96.3,260z"/>
	<path id="XMLID_376_" class="st3" d="M-117.4,245.4l19.2,0.1c-3.6-7.4-11.2-12.7-20-12.7c-7.6,0-14.4,3.9-18.4,9.7
		c-2.4,3.5-3.8,7.9-3.8,12.5c0,1.7,0.4,4.1,1.2,5.1h12.1L-117.4,245.4z"/>
	<polygon id="XMLID_375_" class="st1" points="-106.5,216 -110.5,211.9 -110.5,219.7 -106.5,219.7 	"/>
	<polygon id="XMLID_374_" class="st1" points="-129.7,216 -125.8,211.9 -125.8,219.7 -129.7,219.7 	"/>
	<rect id="XMLID_373_" x="-125.8" y="211.9" class="st4" width="15.3" height="3.9"/>
	<path id="XMLID_372_" class="st5" d="M-96,254.8c0-3.4-0.7-6.5-2.1-9.4l-19.8-0.1l8.7,14.6l12.6,0.1C-96.2,258.3-96,256.6-96,254.8
		z"/>
	<path id="XMLID_371_" class="st6" d="M-136.4,242.7c-2.4,3.5-3.8,7.8-3.8,12.4c0,1.7,0.4,4.1,1.2,5.1h12.2L-136.4,242.7z"/>
	<path id="XMLID_370_" class="st7" d="M-118.1,246.8c-4.6,0-8.4,3.9-8.4,8.6c0,1.7,0.5,3.7,1.4,4.7h14.1c0.9-1,1.4-3.1,1.4-4.7
		C-109.7,250.8-113.5,246.8-118.1,246.8z"/>
	<path id="XMLID_369_" class="st8" d="M-118.1,245.3c-5.5,0-10,4.6-10,10.2c0,1.7,0.4,3.7,1.1,4.7h1.8c-0.9-1-1.4-3.1-1.4-4.7
		c0-4.6,3.8-8.5,8.4-8.5c4.6,0,8.4,3.9,8.4,8.5c0,1.7-0.5,3.7-1.4,4.7h1.8c0.7-1,1.1-3.1,1.1-4.7
		C-108.1,249.9-112.6,245.3-118.1,245.3z"/>
</g>
</svg>
